<mxfile host="Electron" agent="Mozilla/5.0 (Windows NT 10.0; Win64; x64) AppleWebKit/537.36 (KHTML, like Gecko) draw.io/24.7.17 Chrome/128.0.6613.36 Electron/32.0.1 Safari/537.36" version="24.7.17">
  <diagram name="第 1 页" id="jrrplti-qMfVl9oB4htV">
    <mxGraphModel dx="880" dy="532" grid="1" gridSize="10" guides="1" tooltips="1" connect="1" arrows="1" fold="1" page="1" pageScale="1" pageWidth="827" pageHeight="1169" math="0" shadow="0">
      <root>
        <mxCell id="0" />
        <mxCell id="1" parent="0" />
        <mxCell id="Cz4WvXF1x-Y8xc-7SXyN-2" value="" style="shape=parallelogram;html=1;strokeWidth=2;perimeter=parallelogramPerimeter;whiteSpace=wrap;rounded=1;arcSize=12;size=0.23;direction=west;fillColor=#dae8fc;strokeColor=#6c8ebf;" vertex="1" parent="1">
          <mxGeometry x="40" y="561" width="766" height="80" as="geometry" />
        </mxCell>
        <mxCell id="Cz4WvXF1x-Y8xc-7SXyN-3" value="&lt;b&gt;&lt;font style=&quot;font-size: 18px;&quot;&gt;数据连接面&lt;/font&gt;&lt;/b&gt;" style="text;html=1;align=center;verticalAlign=middle;resizable=0;points=[];autosize=1;strokeColor=none;fillColor=none;" vertex="1" parent="1">
          <mxGeometry x="693" y="521" width="110" height="40" as="geometry" />
        </mxCell>
        <mxCell id="Cz4WvXF1x-Y8xc-7SXyN-9" value="&lt;b&gt;&lt;font style=&quot;font-size: 14px;&quot;&gt;Things Gateway&lt;/font&gt;&lt;/b&gt;" style="shape=cube;whiteSpace=wrap;html=1;boundedLbl=1;backgroundOutline=1;darkOpacity=0.05;darkOpacity2=0.1;strokeWidth=2;fillColor=#dae8fc;gradientColor=#7ea6e0;strokeColor=#6c8ebf;" vertex="1" parent="1">
          <mxGeometry x="150" y="551" width="140" height="60" as="geometry" />
        </mxCell>
        <mxCell id="Cz4WvXF1x-Y8xc-7SXyN-11" value="&lt;b&gt;&lt;font style=&quot;font-size: 14px;&quot;&gt;Things&amp;nbsp;&lt;/font&gt;&lt;/b&gt;&lt;b&gt;&lt;font style=&quot;font-size: 14px;&quot;&gt;Broker&lt;/font&gt;&lt;/b&gt;" style="shape=cube;whiteSpace=wrap;html=1;boundedLbl=1;backgroundOutline=1;darkOpacity=0.05;darkOpacity2=0.1;strokeWidth=2;fillColor=#dae8fc;gradientColor=#7ea6e0;strokeColor=#6c8ebf;" vertex="1" parent="1">
          <mxGeometry x="343.5" y="551" width="140" height="60" as="geometry" />
        </mxCell>
        <mxCell id="Cz4WvXF1x-Y8xc-7SXyN-12" value="&lt;b&gt;&lt;font style=&quot;font-size: 14px;&quot;&gt;Things Engine&lt;/font&gt;&lt;/b&gt;" style="shape=cube;whiteSpace=wrap;html=1;boundedLbl=1;backgroundOutline=1;darkOpacity=0.05;darkOpacity2=0.1;strokeWidth=2;fillColor=#dae8fc;gradientColor=#7ea6e0;strokeColor=#6c8ebf;" vertex="1" parent="1">
          <mxGeometry x="540" y="551" width="140" height="60" as="geometry" />
        </mxCell>
        <mxCell id="Cz4WvXF1x-Y8xc-7SXyN-14" value="" style="shape=parallelogram;html=1;strokeWidth=2;perimeter=parallelogramPerimeter;whiteSpace=wrap;rounded=1;arcSize=12;size=0.23;direction=west;fillColor=#d5e8d4;strokeColor=#82b366;" vertex="1" parent="1">
          <mxGeometry x="40" y="241" width="766" height="80" as="geometry" />
        </mxCell>
        <mxCell id="Cz4WvXF1x-Y8xc-7SXyN-15" value="&lt;span style=&quot;font-size: 18px;&quot;&gt;&lt;b&gt;控制管理面&lt;/b&gt;&lt;/span&gt;" style="text;html=1;align=center;verticalAlign=middle;resizable=0;points=[];autosize=1;strokeColor=none;fillColor=none;" vertex="1" parent="1">
          <mxGeometry x="696" y="201" width="110" height="40" as="geometry" />
        </mxCell>
        <mxCell id="Cz4WvXF1x-Y8xc-7SXyN-16" value="&lt;b&gt;&lt;font style=&quot;font-size: 14px;&quot;&gt;Things T&lt;/font&gt;&lt;/b&gt;&lt;span style=&quot;font-size: 14px;&quot;&gt;&lt;b&gt;elemetry&lt;/b&gt;&lt;/span&gt;" style="shape=cube;whiteSpace=wrap;html=1;boundedLbl=1;backgroundOutline=1;darkOpacity=0.05;darkOpacity2=0.1;strokeWidth=2;fillColor=#d5e8d4;gradientColor=#97d077;strokeColor=#82b366;" vertex="1" parent="1">
          <mxGeometry x="150" y="231" width="140" height="60" as="geometry" />
        </mxCell>
        <mxCell id="Cz4WvXF1x-Y8xc-7SXyN-17" value="&lt;b&gt;&lt;font style=&quot;font-size: 14px;&quot;&gt;Things Control&lt;/font&gt;&lt;/b&gt;" style="shape=cube;whiteSpace=wrap;html=1;boundedLbl=1;backgroundOutline=1;darkOpacity=0.05;darkOpacity2=0.1;strokeWidth=2;fillColor=#d5e8d4;gradientColor=#97d077;strokeColor=#82b366;" vertex="1" parent="1">
          <mxGeometry x="343.5" y="231" width="140" height="60" as="geometry" />
        </mxCell>
        <mxCell id="Cz4WvXF1x-Y8xc-7SXyN-18" value="&lt;b&gt;&lt;font style=&quot;font-size: 14px;&quot;&gt;Things Manager&lt;/font&gt;&lt;/b&gt;" style="shape=cube;whiteSpace=wrap;html=1;boundedLbl=1;backgroundOutline=1;darkOpacity=0.05;darkOpacity2=0.1;strokeWidth=2;fillColor=#d5e8d4;gradientColor=#97d077;strokeColor=#82b366;" vertex="1" parent="1">
          <mxGeometry x="540" y="231" width="140" height="60" as="geometry" />
        </mxCell>
        <mxCell id="Cz4WvXF1x-Y8xc-7SXyN-19" value="" style="shape=parallelogram;html=1;strokeWidth=2;perimeter=parallelogramPerimeter;whiteSpace=wrap;rounded=1;arcSize=12;size=0.23;direction=west;fillColor=#ffe6cc;strokeColor=#d79b00;" vertex="1" parent="1">
          <mxGeometry x="40" y="881" width="766" height="80" as="geometry" />
        </mxCell>
        <mxCell id="Cz4WvXF1x-Y8xc-7SXyN-20" value="&lt;b&gt;&lt;font style=&quot;font-size: 18px;&quot;&gt;应用终端面&lt;/font&gt;&lt;/b&gt;" style="text;html=1;align=center;verticalAlign=middle;resizable=0;points=[];autosize=1;strokeColor=none;fillColor=none;" vertex="1" parent="1">
          <mxGeometry x="693" y="841" width="110" height="40" as="geometry" />
        </mxCell>
        <mxCell id="Cz4WvXF1x-Y8xc-7SXyN-21" value="&lt;b&gt;&lt;font style=&quot;font-size: 14px;&quot;&gt;Things Client&lt;/font&gt;&lt;/b&gt;" style="shape=cube;whiteSpace=wrap;html=1;boundedLbl=1;backgroundOutline=1;darkOpacity=0.05;darkOpacity2=0.1;strokeWidth=2;fillColor=#ffcd28;strokeColor=#d79b00;gradientColor=#ffa500;" vertex="1" parent="1">
          <mxGeometry x="150" y="871" width="140" height="60" as="geometry" />
        </mxCell>
        <mxCell id="Cz4WvXF1x-Y8xc-7SXyN-22" value="&lt;b&gt;&lt;font style=&quot;font-size: 14px;&quot;&gt;Things Device&lt;/font&gt;&lt;/b&gt;" style="shape=cube;whiteSpace=wrap;html=1;boundedLbl=1;backgroundOutline=1;darkOpacity=0.05;darkOpacity2=0.1;strokeWidth=2;fillColor=#ffcd28;strokeColor=#d79b00;gradientColor=#ffa500;" vertex="1" parent="1">
          <mxGeometry x="343.5" y="871" width="140" height="60" as="geometry" />
        </mxCell>
        <mxCell id="Cz4WvXF1x-Y8xc-7SXyN-23" value="&lt;b&gt;&lt;font style=&quot;font-size: 14px;&quot;&gt;Things Platform&lt;/font&gt;&lt;/b&gt;" style="shape=cube;whiteSpace=wrap;html=1;boundedLbl=1;backgroundOutline=1;darkOpacity=0.05;darkOpacity2=0.1;strokeWidth=2;fillColor=#ffcd28;strokeColor=#d79b00;gradientColor=#ffa500;" vertex="1" parent="1">
          <mxGeometry x="540" y="871" width="140" height="60" as="geometry" />
        </mxCell>
        <mxCell id="Cz4WvXF1x-Y8xc-7SXyN-25" value="" style="shape=singleArrow;direction=north;whiteSpace=wrap;html=1;fillColor=#f8cecc;strokeColor=#b85450;" vertex="1" parent="1">
          <mxGeometry x="190" y="710" width="60" height="100" as="geometry" />
        </mxCell>
        <mxCell id="Cz4WvXF1x-Y8xc-7SXyN-29" value="" style="shape=doubleArrow;direction=south;whiteSpace=wrap;html=1;fillColor=#e1d5e7;strokeColor=#9673a6;" vertex="1" parent="1">
          <mxGeometry x="384" y="710" width="60" height="100" as="geometry" />
        </mxCell>
        <mxCell id="Cz4WvXF1x-Y8xc-7SXyN-30" value="" style="shape=doubleArrow;direction=south;whiteSpace=wrap;html=1;fillColor=#e1d5e7;strokeColor=#9673a6;" vertex="1" parent="1">
          <mxGeometry x="580" y="710" width="60" height="100" as="geometry" />
        </mxCell>
        <mxCell id="Cz4WvXF1x-Y8xc-7SXyN-34" value="" style="shape=doubleArrow;direction=south;whiteSpace=wrap;html=1;fillColor=#e1d5e7;strokeColor=#9673a6;" vertex="1" parent="1">
          <mxGeometry x="384" y="390" width="60" height="100" as="geometry" />
        </mxCell>
        <mxCell id="Cz4WvXF1x-Y8xc-7SXyN-35" value="" style="shape=doubleArrow;direction=south;whiteSpace=wrap;html=1;fillColor=#e1d5e7;strokeColor=#9673a6;" vertex="1" parent="1">
          <mxGeometry x="580" y="390" width="60" height="100" as="geometry" />
        </mxCell>
        <mxCell id="Cz4WvXF1x-Y8xc-7SXyN-36" value="" style="shape=singleArrow;whiteSpace=wrap;html=1;fillColor=#f8cecc;strokeColor=#b85450;" vertex="1" parent="1">
          <mxGeometry x="220" y="410" width="60" height="60" as="geometry" />
        </mxCell>
        <mxCell id="Cz4WvXF1x-Y8xc-7SXyN-31" value="" style="shape=singleArrow;direction=north;whiteSpace=wrap;html=1;fillColor=#f8cecc;strokeColor=#b85450;" vertex="1" parent="1">
          <mxGeometry x="190" y="390" width="60" height="100" as="geometry" />
        </mxCell>
        <mxCell id="Cz4WvXF1x-Y8xc-7SXyN-40" value="&lt;font style=&quot;font-size: 24px;&quot;&gt;&lt;b&gt;Things Framework 分层架构架构图&lt;/b&gt;&lt;/font&gt;" style="text;html=1;align=center;verticalAlign=middle;resizable=0;points=[];autosize=1;strokeColor=none;fillColor=none;" vertex="1" parent="1">
          <mxGeometry x="218" y="70" width="410" height="40" as="geometry" />
        </mxCell>
        <mxCell id="Cz4WvXF1x-Y8xc-7SXyN-41" value="&lt;b&gt;@author huangdayu&lt;/b&gt;" style="text;html=1;align=center;verticalAlign=middle;resizable=0;points=[];autosize=1;strokeColor=none;fillColor=none;" vertex="1" parent="1">
          <mxGeometry x="353" y="110" width="140" height="30" as="geometry" />
        </mxCell>
      </root>
    </mxGraphModel>
  </diagram>
</mxfile>
